<svg width="484" height="151" viewBox="0 0 484 151" fill="none" xmlns="http://www.w3.org/2000/svg">
<g opacity="0.15">
<path fill-rule="evenodd" clip-rule="evenodd" d="M370.831 52.0516C380.073 63.084 378.014 91.5917 367.639 99.4824C361.869 83.1801 363.896 67.7079 370.831 52.0516ZM329.211 117.213C320.711 99.2421 324.462 47.9706 331.414 34.8633C345.093 53.0594 344.063 96.5651 329.211 117.213ZM91.0075 43.8584C102.532 43.8334 110.64 52.1171 110.648 63.9077C110.656 75.5205 102.165 84.2347 90.9676 84.0974C79.7465 83.9695 71.7896 75.6952 71.7178 64.1136C71.6379 52.1015 79.4753 43.8834 91.0075 43.8584ZM285.58 19.65C308.461 50.4073 303.593 109.338 282.555 131.509C283.569 94.25 284.558 57.5397 285.58 19.65ZM154.112 12.2275C181.989 52.6195 174.271 111.669 151.159 136.358C157.168 94.3218 155.676 53.2996 154.112 12.2275ZM234.343 138.451C241.869 96.2001 242.316 54.3698 242.212 11.2541C265.005 43.0753 262.834 110.87 234.343 138.451ZM194.112 139.64C198.046 96.5651 205.181 53.5461 197.041 10.1745C225.724 42.108 221.829 102.74 194.112 139.64ZM450.216 78.1319C463.464 69.9918 473.496 59.4242 480.192 45.9738C489.011 28.2177 482.267 16.8139 462.499 15.073C451.916 14.137 442.044 16.5019 433.193 21.8934C425.061 26.8386 417.575 32.8603 409.857 38.4826C407.798 39.9833 405.955 41.7648 403.967 43.3779C395.971 49.8177 387.631 50.7037 378.142 46.2452C360.863 38.13 343.64 29.6966 325.779 23.0446C288.014 8.98583 248.637 2.25902 208.421 0.415076C147.456 -2.39645 89.1638 9.11994 33.4018 33.5935C24.599 37.4592 16.6023 43.2188 8.37408 48.3388C6.39482 49.5618 4.81464 51.5586 3.38606 53.4431C-1.41042 59.7051 -1.22696 66.1666 4.67887 71.3896C49.8264 111.376 99.8742 141.743 161.247 148.554C220.736 155.144 278.693 148.788 334.055 124.97C349.235 118.452 363.8 110.465 378.62 103.098C383.329 100.758 388.014 98.356 392.571 95.7508C395.34 94.1627 396.585 95.0082 398.213 97.526C402.722 104.465 407.104 111.591 412.451 117.853C423.066 130.28 436.713 135.041 452.834 131.294C464.246 128.651 469.29 120.798 467.399 109.307C465.364 97.0144 458.748 87.1956 450.216 78.1319Z" fill="#FAB751"/>
<path fill-rule="evenodd" clip-rule="evenodd" d="M194.112 139.641C221.829 102.74 225.724 42.1083 197.041 10.1748C205.181 53.5464 198.046 96.5654 194.112 139.641Z" fill="white"/>
<path fill-rule="evenodd" clip-rule="evenodd" d="M234.343 138.451C262.834 110.87 265.005 43.0751 242.212 11.2539C242.315 54.3696 241.868 96.1999 234.343 138.451Z" fill="white"/>
<path fill-rule="evenodd" clip-rule="evenodd" d="M154.112 12.228C155.676 53.3001 157.168 94.3222 151.159 136.358C174.271 111.67 181.989 52.6199 154.112 12.228Z" fill="white"/>
<path fill-rule="evenodd" clip-rule="evenodd" d="M285.58 19.6504C284.558 57.54 283.569 94.2504 282.555 131.51C303.593 109.339 308.461 50.4076 285.58 19.6504Z" fill="white"/>
<path fill-rule="evenodd" clip-rule="evenodd" d="M91.0077 43.858C79.4755 43.883 71.6382 52.1011 71.718 64.1132C71.7898 75.6948 79.7468 83.9691 90.9678 84.097C102.165 84.2343 110.656 75.5201 110.648 63.9073C110.64 52.1167 102.532 43.833 91.0077 43.858Z" fill="white"/>
<path fill-rule="evenodd" clip-rule="evenodd" d="M329.212 117.213C344.064 96.565 345.094 53.0593 331.415 34.8633C324.463 47.9706 320.712 99.242 329.212 117.213Z" fill="white"/>
<path fill-rule="evenodd" clip-rule="evenodd" d="M370.831 52.0508C363.887 67.7071 361.868 83.1794 367.638 99.4816C378.013 91.5909 380.072 63.0832 370.831 52.0508Z" fill="white"/>
</g>
</svg>
