<svg width="91" height="91" viewBox="0 0 91 91" fill="none" xmlns="http://www.w3.org/2000/svg">
<rect width="91" height="91" rx="45.5" fill="#FAC663"/>
<path d="M47.159 46.6172C50.4343 46.6172 53.1141 50.0598 53.1141 50.9205C53.1141 51.7811 50.4343 54.65 47.159 54.65C43.8838 54.65 41.5017 50.9205 41.5017 50.9205C41.5017 50.9205 43.8838 46.6172 47.159 46.6172Z" fill="#FFFDFB"/>
<path d="M37.9287 47.4778L41.5017 50.9205M41.5017 50.9205L37.9287 54.3631M41.5017 50.9205C41.5017 50.9205 43.8838 54.65 47.159 54.65C50.4343 54.65 53.1141 51.7811 53.1141 50.9205C53.1141 50.0598 50.4343 46.6172 47.159 46.6172C43.8838 46.6172 41.5017 50.9205 41.5017 50.9205Z" stroke="#FFFDFB" stroke-width="2" stroke-linecap="round" stroke-linejoin="round"/>
<path d="M30.8857 34.0633C29.4637 34.3743 28.9267 35.7685 28.6814 36.9108C28.5572 37.4891 29.0051 38.0214 29.5964 38.0381C37.7404 38.2681 55.1468 37.723 62.2456 37.9688C62.6937 37.9843 63.1113 37.6922 63.036 37.2502C62.82 35.9829 61.4203 34.3534 59.9903 34.0098C59.4533 33.8807 58.893 33.5564 58.604 33.0859C57.8631 31.8797 56.3765 30.8876 55.1419 30.9828C54.4932 31.0328 53.6775 30.9541 53.2501 30.4635C52.0544 29.091 50.5377 28.4823 49.3283 28.9519C48.8135 29.1518 48.185 29.1737 47.714 28.8852C46.334 28.0398 44.3995 27.8506 43.0791 28.9015C42.701 29.2024 42.1886 29.333 41.7315 29.176C40.2046 28.6516 38.5445 28.7919 37.5271 30.3727C37.1809 30.9107 36.4755 31.1646 35.8487 31.0363C34.1013 30.6785 32.6802 31.9788 31.7966 33.4579C31.6024 33.7831 31.2557 33.9824 30.8857 34.0633Z" fill="white" stroke="white"/>
<path d="M66.6558 38.5H24.8442C24.3566 38.5 23.9402 38.8516 23.8583 39.3322L20.1988 60.8322C20.0949 61.4428 20.5653 62 21.1846 62H70.3154C70.9347 62 71.4052 61.4428 71.3012 60.8322L67.6417 39.3322C67.5598 38.8516 67.1434 38.5 66.6558 38.5Z" stroke="white"/>
</svg>
