<svg width="36" height="36" viewBox="0 0 36 36" fill="none" xmlns="http://www.w3.org/2000/svg">
<path d="M36 18C36 22.8079 34.1277 27.3277 30.7279 30.7279C27.329 34.1268 22.8093 35.9992 18.0022 36H18C13.1921 36 8.67151 34.1277 5.27206 30.7279C1.87234 27.3277 0 22.8079 0 18C0 13.1921 1.87234 8.67151 5.27206 5.27206C8.67151 1.87234 13.1921 0 18 0H18.0022C22.8093 0.000823978 27.329 1.87317 30.7279 5.27206C34.1277 8.67151 36 13.1921 36 18Z" fill="#FF7236"/>
<path d="M24.8034 15.5245C21.8389 17.2247 22.3438 22.1874 25.5593 22.1874C26.9462 22.1874 28.1464 21.1448 28.6808 19.8119C29.915 16.7336 27.3485 14.0643 24.8034 15.5245Z" fill="#FFFEFD"/>
<path d="M21.7585 16.1392C25.3153 16.1392 26.3803 10.0993 23.0011 9.10631C21.4616 8.65404 19.7109 9.73923 19.1486 11.723C18.5177 13.9464 19.7589 16.1392 21.7585 16.1392Z" fill="#FFFEFD"/>
<path d="M20.8435 26.89C20.3495 26.7535 19.4729 26.6655 18.5552 26.6528C17.5853 26.6386 16.5697 26.7081 15.9127 26.89C14.138 27.3844 11.7232 26.1883 12.2531 23.7043C12.7431 21.4078 14.504 21.5386 14.9204 19.3623C15.3399 17.1627 16.9704 16.1012 18.5552 16.1842C20.0221 16.2612 21.4497 17.319 21.8387 19.3628C22.2526 21.5406 24.0098 21.4085 24.4992 23.7043C25.031 26.1903 22.6111 27.3799 20.8435 26.89Z" fill="#FFFEFD"/>
<path d="M15.4983 16.1393C16.5044 16.1393 17.3685 15.555 17.8486 14.6607C19.2759 12.0014 16.9317 8.32 14.2555 9.10841C10.8705 10.1041 11.9435 16.1393 15.4983 16.1393Z" fill="#FFFEFD"/>
<path d="M13.8909 20.2098C15.033 17.4154 12.3259 14.0021 9.74052 15.0761C6.62626 16.3696 7.99979 21.9485 11.424 21.9485C12.523 21.9485 13.4568 21.272 13.8909 20.2098Z" fill="#FFFEFD"/>
<path d="M20.8439 26.8904C20.3499 26.7539 19.4733 26.6659 18.5557 26.6532V16.1846C20.0225 16.2616 21.4501 17.3193 21.8391 19.3631C22.2531 21.541 24.0103 21.4089 24.4996 23.7046C25.0314 26.1907 22.6115 27.3803 20.8439 26.8904Z" fill="#FFFEFD"/>
</svg>
