<svg width="123" height="128" viewBox="0 0 123 128" fill="none" xmlns="http://www.w3.org/2000/svg">
<path d="M104.471 53.3841C82.2902 55.4243 66.486 27.1114 83.67 15.0791C91.0813 9.8896 101.382 10.9496 109.208 16.0467C127.28 27.8194 123.516 51.6351 104.471 53.3841Z" fill="#FAC663" fill-opacity="0.15"/>
<path d="M85.9092 61.5048C104.917 48.1955 133.126 76.3698 118.77 94.3015C112.229 102.47 98.8277 103.243 88.4269 94.7849C76.7658 85.307 75.2235 68.987 85.9092 61.5048Z" fill="#FAC663" fill-opacity="0.15"/>
<path d="M40.9376 7.68333C38.807 10.2587 34.4501 14.0075 29.5936 17.5088C24.463 21.214 18.7768 24.6439 14.5872 26.1341C3.26027 30.1424 -5.18499 45.5467 6.90771 56.7906C18.0885 67.1843 27.0107 59.8988 37.3499 69.9287C47.7923 80.0701 60.463 79.6211 68.6232 73.2488C76.175 67.3501 79.8603 56.3761 74.3194 44.0383C68.4122 30.8934 78.295 25.0212 72.3512 10.9666C65.9242 -4.2603 48.5574 -1.53939 40.9376 7.68333Z" fill="#FAC663" fill-opacity="0.15"/>
<path d="M52.4554 84.9277C57.8319 81.1631 64.628 81.0411 70.528 84.0062C88.0701 92.8245 89.2677 121.198 72.0264 127.014C50.2248 134.379 33.4582 98.2297 52.4554 84.9277Z" fill="#FAC663" fill-opacity="0.15"/>
<path d="M28.6877 69.2696C45.2088 79.8744 43.4678 108.178 25.6474 112.134C4.18237 116.9 -9.27711 82.0555 9.02209 69.2423C14.8947 65.1302 22.4076 65.2379 28.6877 69.2696Z" fill="#FAC663" fill-opacity="0.15"/>
</svg>
