<svg width="285" height="294" viewBox="0 0 285 294" fill="none" xmlns="http://www.w3.org/2000/svg">
<path d="M41.2588 162.22C92.0113 162.165 122.154 229.742 80.721 253.526C62.8512 263.784 39.6871 259.249 22.9581 246.055C-15.677 215.582 -2.31892 162.261 41.2588 162.22Z" fill="#FAC663" fill-opacity="0.15"/>
<path d="M85.0274 147.606C39.1973 173.914 -19.1278 104.091 17.0803 66.323C33.5778 49.1175 64.1489 50.129 86.0435 71.4895C110.592 95.4265 110.792 132.816 85.0274 147.606Z" fill="#FAC663" fill-opacity="0.15"/>
<path d="M176.208 279.148C181.565 273.738 192.211 266.122 203.941 259.171C216.334 251.814 229.933 245.197 239.743 242.677C266.26 235.91 288.542 202.663 263.371 174.625C240.098 148.707 218.375 163.414 196.938 138.497C175.29 113.304 146.442 111.708 126.634 124.498C108.302 136.338 97.7184 160.505 107.799 189.674C118.547 220.753 94.9301 232.052 105.578 265.204C117.085 301.12 157.05 298.524 176.208 279.148Z" fill="#FAC663" fill-opacity="0.15"/>
<path d="M165.689 101.307C152.725 108.749 137.277 107.623 124.486 99.669C86.4568 76.0163 89.4765 11.3179 129.783 1.66522C180.752 -10.5623 211.494 75.0133 165.689 101.307Z" fill="#FAC663" fill-opacity="0.15"/>
<path d="M216.464 141.782C181.113 114.282 190.788 50.3488 232.032 45.0419C281.712 38.6475 305.212 120.577 261.091 145.904C246.931 154.033 229.902 152.237 216.464 141.782Z" fill="#FAC663" fill-opacity="0.15"/>
</svg>
