<svg width="123" height="131" viewBox="0 0 123 131" fill="none" xmlns="http://www.w3.org/2000/svg">
<path d="M37.8787 28.8642C47.3821 49.0094 26.182 73.544 8.99809 61.5117C1.58675 56.3222 -0.940292 46.2799 1.17297 37.1833C6.05458 16.1743 29.7214 11.5656 37.8787 28.8642Z" fill="#FAC663" fill-opacity="0.15"/>
<path d="M51.8582 43.5289C32.8505 30.2196 49.6775 -5.9248 71.4378 1.43256C81.3513 4.78535 86.661 17.1142 82.2701 29.7806C77.3521 43.9801 62.5439 51.0112 51.8582 43.5289Z" fill="#FAC663" fill-opacity="0.15"/>
<path d="M16.6637 104.196C19.8125 105.318 24.8253 108.13 29.7765 111.496C35.013 115.05 40.1809 119.22 43.0141 122.647C50.6547 131.92 68.0185 134.587 74.4484 119.378C80.3912 105.317 70.4935 99.4247 76.3822 86.2787C82.3405 72.9974 77.585 61.2444 68.8061 55.7557C60.6802 50.6769 49.1076 50.9672 39.409 60.3936C29.0771 70.4405 20.179 63.162 9.00493 73.5544C-3.10557 84.8017 5.39104 100.191 16.6637 104.196Z" fill="#FAC663" fill-opacity="0.15"/>
<path d="M85.3104 66.9541C79.9339 63.1894 77.4949 56.8449 78.2632 50.2866C80.55 30.7864 106.803 19.9567 118.165 34.1689C132.542 52.1369 104.308 80.2561 85.3104 66.9541Z" fill="#FAC663" fill-opacity="0.15"/>
<path d="M78.7256 94.6438C83.0403 75.492 110.232 67.4476 120.045 82.8402C131.865 101.381 103.725 125.946 85.4259 113.133C79.5533 109.021 77.085 101.924 78.7256 94.6438Z" fill="#FAC663" fill-opacity="0.15"/>
</svg>
