<svg width="22" height="22" viewBox="0 0 22 22" fill="none" xmlns="http://www.w3.org/2000/svg">
<path d="M11 22C17.0751 22 22 17.0751 22 11C22 4.92487 17.0751 0 11 0C4.92487 0 0 4.92487 0 11C0 17.0751 4.92487 22 11 22Z" fill="#FF7236"/>
<path fill-rule="evenodd" clip-rule="evenodd" d="M10.5844 15.8246H11.4478C11.4478 15.8246 11.7085 15.796 11.8417 15.6525C11.9642 15.5207 11.9603 15.2732 11.9603 15.2732C11.9603 15.2732 11.9435 14.1148 12.4811 13.9442C13.0111 13.7761 13.6918 15.0638 14.4132 15.5589C14.9587 15.9337 15.3732 15.8515 15.3732 15.8515L17.3021 15.8246C17.3021 15.8246 18.3111 15.7625 17.8327 14.9691C17.7935 14.9042 17.5541 14.3822 16.3985 13.3096C15.1891 12.1871 15.351 12.3686 16.8079 10.4268C17.6952 9.24421 18.05 8.52222 17.9392 8.21299C17.8335 7.91847 17.1809 7.99632 17.1809 7.99632L15.0091 8.00985C15.0091 8.00985 14.8481 7.98789 14.7287 8.05926C14.612 8.12927 14.5369 8.29241 14.5369 8.29241C14.5369 8.29241 14.1931 9.20754 13.7347 9.9858C12.7676 11.628 12.3809 11.7147 12.2229 11.6127C11.8552 11.3751 11.947 10.658 11.947 10.1486C11.947 8.55713 12.1884 7.89357 11.477 7.7218C11.2409 7.66474 11.0672 7.62709 10.4634 7.62101C9.68848 7.61297 9.03257 7.62337 8.66119 7.80533C8.41412 7.92632 8.22352 8.19594 8.33961 8.21143C8.48314 8.23064 8.80825 8.29908 8.98061 8.53379C9.20317 8.83655 9.19532 9.51657 9.19532 9.51657C9.19532 9.51657 9.32317 11.39 8.89669 11.6227C8.60393 11.7823 8.20235 11.4564 7.34016 9.96659C6.89838 9.20342 6.56484 8.35986 6.56484 8.35986C6.56484 8.35986 6.50052 8.20221 6.38581 8.11789C6.24659 8.01573 6.05207 7.98318 6.05207 7.98318L3.98827 7.99671C3.98827 7.99671 3.67846 8.00534 3.56473 8.14005C3.46355 8.25986 3.55669 8.50771 3.55669 8.50771C3.55669 8.50771 5.17243 12.2878 7.00191 14.1928C8.67942 15.9393 10.5844 15.8246 10.5844 15.8246Z" fill="#FFFDFB"/>
</svg>
